<svg width="27" height="6" viewBox="0 0 27 6" fill="none" xmlns="http://www.w3.org/2000/svg">
<path d="M4.22901 3.108C4.26368 3.108 4.29034 3.124 4.30901 3.156C4.33034 3.188 4.34101 3.232 4.34101 3.288C4.34101 3.392 4.31568 3.47467 4.26501 3.536C4.00101 3.85867 3.71968 4.02 3.42101 4.02C3.16234 4.02 2.95567 3.92 2.80101 3.72C2.64634 3.52 2.56901 3.23333 2.56901 2.86C2.56901 2.76933 2.57301 2.67867 2.58101 2.588C2.40501 2.62 2.21301 2.644 2.00501 2.66C1.86634 2.67067 1.77167 2.67733 1.72101 2.68C1.66767 2.952 1.59301 3.28533 1.49701 3.68C1.44101 3.912 1.33434 4.028 1.17701 4.028C1.00634 4.028 0.921008 3.95067 0.921008 3.796C0.921008 3.76133 0.927675 3.71333 0.941008 3.652C1.03167 3.28667 1.10367 2.97733 1.15701 2.724L0.965008 2.732C0.877008 2.732 0.813008 2.71733 0.773008 2.688C0.733008 2.656 0.713008 2.60533 0.713008 2.536C0.713008 2.448 0.738341 2.384 0.789008 2.344C0.839675 2.30133 0.923675 2.27733 1.04101 2.272L1.25301 2.264C1.32234 1.888 1.35701 1.60133 1.35701 1.404C1.35701 1.27867 1.33834 1.19333 1.30101 1.148C1.26367 1.10267 1.21434 1.08 1.15301 1.08C0.966341 1.08 0.755675 1.236 0.521008 1.548C0.486341 1.59333 0.447674 1.616 0.405008 1.616C0.367674 1.616 0.335674 1.59867 0.309008 1.564C0.282341 1.52933 0.269008 1.48533 0.269008 1.432C0.269008 1.34933 0.302341 1.26133 0.369008 1.168C0.486341 1.00533 0.634341 0.871999 0.813008 0.768C0.991675 0.661333 1.17301 0.607999 1.35701 0.607999C1.53034 0.607999 1.66367 0.667999 1.75701 0.787999C1.85301 0.905333 1.90101 1.08933 1.90101 1.34C1.90101 1.56133 1.86901 1.86133 1.80501 2.24L2.19701 2.22C2.36501 2.212 2.50901 2.19867 2.62901 2.18C2.67701 1.88667 2.75034 1.612 2.84901 1.356C2.94767 1.1 3.07034 0.892 3.21701 0.731999C3.36367 0.571999 3.52767 0.491999 3.70901 0.491999C3.84234 0.491999 3.94768 0.545333 4.02501 0.652C4.10234 0.755999 4.14101 0.893333 4.14101 1.064C4.14101 1.72533 3.80368 2.184 3.12901 2.44C3.12101 2.54667 3.11701 2.65733 3.11701 2.772C3.11701 3.052 3.15168 3.25067 3.22101 3.368C3.29034 3.48533 3.38767 3.544 3.51301 3.544C3.62234 3.544 3.72234 3.516 3.81301 3.46C3.90368 3.40133 4.00634 3.30267 4.12101 3.164C4.15301 3.12667 4.18901 3.108 4.22901 3.108ZM3.68901 0.84C3.63034 0.84 3.56768 0.893333 3.50101 0.999999C3.43701 1.10667 3.37567 1.252 3.31701 1.436C3.25834 1.62 3.21167 1.82133 3.17701 2.04C3.39034 1.952 3.54767 1.82667 3.64901 1.664C3.75034 1.50133 3.80101 1.292 3.80101 1.036C3.80101 0.974666 3.79034 0.926666 3.76901 0.892C3.74767 0.857333 3.72101 0.84 3.68901 0.84ZM5.2052 4.02C5.0212 4.02 4.85453 3.97467 4.7052 3.884C4.55853 3.79333 4.44253 3.66267 4.3572 3.492C4.27186 3.31867 4.2292 3.11467 4.2292 2.88C4.2292 2.47467 4.31586 2.1 4.4892 1.756C4.66253 1.40933 4.91853 1.132 5.2572 0.923999C5.59586 0.713333 6.00253 0.607999 6.4772 0.607999C6.59986 0.607999 6.73053 0.617333 6.8692 0.636C7.01053 0.654666 7.13853 0.682666 7.2532 0.719999C7.32786 0.741333 7.3652 0.794666 7.3652 0.88C7.3652 0.949333 7.33853 1.01467 7.2852 1.076C7.23453 1.13733 7.17453 1.168 7.1052 1.168C7.08386 1.168 7.06786 1.16667 7.0572 1.164C6.91853 1.132 6.79986 1.10933 6.7012 1.096C6.60253 1.08 6.49853 1.072 6.3892 1.072C6.05053 1.072 5.76253 1.15467 5.5252 1.32C5.28786 1.48267 5.11053 1.69867 4.9932 1.968C4.87586 2.23733 4.8172 2.528 4.8172 2.84C4.8172 3.06667 4.8612 3.24267 4.9492 3.368C5.03986 3.49067 5.1572 3.552 5.3012 3.552C5.46386 3.552 5.60653 3.48533 5.7292 3.352C5.85186 3.21867 5.96386 3.00267 6.0652 2.704C6.16653 2.40533 6.26653 2 6.3652 1.488C6.3812 1.41333 6.4132 1.36267 6.4612 1.336C6.5092 1.30933 6.5732 1.296 6.6532 1.296C6.84253 1.296 6.9372 1.35733 6.9372 1.48C6.9372 1.50133 6.9332 1.528 6.9252 1.56C6.85586 1.81867 6.79186 2.10533 6.7332 2.42C6.6772 2.732 6.6492 2.96933 6.6492 3.132C6.6492 3.276 6.67053 3.38133 6.7132 3.448C6.75586 3.512 6.8212 3.544 6.9092 3.544C6.99453 3.544 7.07586 3.516 7.1532 3.46C7.23053 3.40133 7.32786 3.30267 7.4452 3.164C7.4772 3.12667 7.5132 3.108 7.5532 3.108C7.58786 3.108 7.61453 3.124 7.6332 3.156C7.65453 3.188 7.6652 3.232 7.6652 3.288C7.6652 3.392 7.63986 3.47467 7.5892 3.536C7.45853 3.69333 7.33053 3.81333 7.2052 3.896C7.07986 3.97867 6.92653 4.02 6.7452 4.02C6.55853 4.02 6.40786 3.96667 6.2932 3.86C6.17853 3.75067 6.10653 3.59733 6.0772 3.4C5.87986 3.81333 5.5892 4.02 5.2052 4.02ZM8.65773 4.02C8.43373 4.02 8.26439 3.95867 8.14973 3.836C8.03506 3.71067 7.97773 3.544 7.97773 3.336C7.97773 3.21867 7.99506 3.076 8.02973 2.908L8.27773 1.764C8.28306 1.74267 8.29506 1.684 8.31373 1.588C8.33506 1.492 8.34573 1.388 8.34573 1.276C8.34573 1.212 8.33239 1.164 8.30573 1.132C8.28173 1.1 8.24839 1.084 8.20573 1.084C8.12573 1.084 8.03239 1.12267 7.92573 1.2C7.81906 1.27467 7.70706 1.39067 7.58973 1.548C7.55239 1.59867 7.51106 1.624 7.46573 1.624C7.42839 1.624 7.39506 1.60667 7.36573 1.572C7.33906 1.53467 7.32573 1.49333 7.32573 1.448C7.32573 1.36533 7.36306 1.272 7.43773 1.168C7.70973 0.794666 8.02839 0.607999 8.39373 0.607999C8.55639 0.607999 8.68306 0.657333 8.77373 0.755999C8.86706 0.854666 8.91373 0.999999 8.91373 1.192C8.91373 1.328 8.90439 1.45333 8.88573 1.568C8.86706 1.68267 8.83506 1.83867 8.78973 2.036L8.62573 2.768C8.62039 2.792 8.61106 2.83467 8.59773 2.896C8.58439 2.95733 8.57373 3.016 8.56573 3.072C8.55773 3.12533 8.55373 3.17867 8.55373 3.232C8.55373 3.31733 8.57773 3.38533 8.62573 3.436C8.67373 3.48667 8.74173 3.512 8.82973 3.512C8.98973 3.512 9.15106 3.42667 9.31373 3.256C9.47906 3.08533 9.63106 2.81067 9.76973 2.432C9.91106 2.05067 10.0204 1.564 10.0977 0.972C10.1164 0.836 10.1431 0.741333 10.1777 0.687999C10.2151 0.634666 10.2857 0.607999 10.3897 0.607999C10.4831 0.607999 10.5524 0.635999 10.5977 0.692C10.6431 0.747999 10.6657 0.838666 10.6657 0.963999C10.6657 1.036 10.6564 1.13067 10.6377 1.248C10.6217 1.36533 10.5964 1.52933 10.5617 1.74C10.4897 2.148 10.4324 2.52267 10.3897 2.864C10.3684 3.01867 10.3577 3.13333 10.3577 3.208C10.3577 3.31733 10.3817 3.40133 10.4297 3.46C10.4804 3.516 10.5471 3.544 10.6297 3.544C10.7177 3.544 10.8031 3.51467 10.8857 3.456C10.9711 3.39733 11.0711 3.3 11.1857 3.164C11.2177 3.12667 11.2537 3.108 11.2937 3.108C11.3284 3.108 11.3551 3.124 11.3737 3.156C11.3951 3.188 11.4057 3.232 11.4057 3.288C11.4057 3.392 11.3804 3.47467 11.3297 3.536C11.1911 3.704 11.0537 3.82667 10.9177 3.904C10.7817 3.98133 10.6391 4.02 10.4897 4.02C10.2684 4.02 10.0991 3.964 9.98173 3.852C9.86439 3.73733 9.80573 3.58933 9.80573 3.408C9.80573 3.30667 9.82706 3.10933 9.86973 2.816C9.73639 3.208 9.56706 3.50667 9.36173 3.712C9.15906 3.91733 8.92439 4.02 8.65773 4.02ZM13.5389 4.02C13.3842 4.02 13.2096 4.00667 13.0149 3.98C12.9082 3.96667 12.8349 3.93867 12.7949 3.896C12.7549 3.85333 12.7376 3.784 12.7429 3.688C12.7616 3.424 12.8056 3.09867 12.8749 2.712C12.9442 2.32267 13.0282 1.948 13.1269 1.588C13.1456 1.52133 13.1829 1.47467 13.2389 1.448C13.2949 1.42133 13.3682 1.408 13.4589 1.408C13.6216 1.408 13.7029 1.45333 13.7029 1.544C13.7029 1.58133 13.6949 1.624 13.6789 1.672C13.6096 1.88533 13.5402 2.172 13.4709 2.532C13.4016 2.88933 13.3522 3.23067 13.3229 3.556C13.4029 3.564 13.4936 3.568 13.5949 3.568C14.0616 3.568 14.4096 3.42667 14.6389 3.144C14.8709 2.86133 14.9869 2.484 14.9869 2.012C14.9869 1.69467 14.8962 1.44933 14.7149 1.276C14.5336 1.10267 14.2776 1.016 13.9469 1.016C13.7336 1.016 13.5216 1.04933 13.3109 1.116C13.1029 1.18267 12.9149 1.27067 12.7469 1.38C12.7122 1.404 12.6749 1.416 12.6349 1.416C12.5896 1.416 12.5536 1.39733 12.5269 1.36C12.5002 1.32 12.4869 1.272 12.4869 1.216C12.4869 1.152 12.4976 1.1 12.5189 1.06C12.5402 1.01733 12.5762 0.978666 12.6269 0.943999C12.8109 0.818666 13.0269 0.723999 13.2749 0.659999C13.5229 0.593333 13.7616 0.56 13.9909 0.56C14.3162 0.56 14.5976 0.617333 14.8349 0.731999C15.0722 0.843999 15.2549 1.00933 15.3829 1.228C15.5109 1.44667 15.5749 1.71067 15.5749 2.02C15.5749 2.42267 15.4949 2.77467 15.3349 3.076C15.1749 3.37467 14.9416 3.60667 14.6349 3.772C14.3282 3.93733 13.9629 4.02 13.5389 4.02ZM17.0307 4.02C16.8467 4.02 16.68 3.97467 16.5307 3.884C16.384 3.79333 16.268 3.66267 16.1827 3.492C16.0973 3.31867 16.0547 3.11467 16.0547 2.88C16.0547 2.47467 16.1413 2.1 16.3147 1.756C16.488 1.40933 16.744 1.132 17.0827 0.923999C17.4213 0.713333 17.828 0.607999 18.3027 0.607999C18.4253 0.607999 18.556 0.617333 18.6947 0.636C18.836 0.654666 18.964 0.682666 19.0787 0.719999C19.1533 0.741333 19.1907 0.794666 19.1907 0.88C19.1907 0.949333 19.164 1.01467 19.1107 1.076C19.06 1.13733 19 1.168 18.9307 1.168C18.9093 1.168 18.8933 1.16667 18.8827 1.164C18.744 1.132 18.6253 1.10933 18.5267 1.096C18.428 1.08 18.324 1.072 18.2147 1.072C17.876 1.072 17.588 1.15467 17.3507 1.32C17.1133 1.48267 16.936 1.69867 16.8187 1.968C16.7013 2.23733 16.6427 2.528 16.6427 2.84C16.6427 3.06667 16.6867 3.24267 16.7747 3.368C16.8653 3.49067 16.9827 3.552 17.1267 3.552C17.2893 3.552 17.432 3.48533 17.5547 3.352C17.6773 3.21867 17.7893 3.00267 17.8907 2.704C17.992 2.40533 18.092 2 18.1907 1.488C18.2067 1.41333 18.2387 1.36267 18.2867 1.336C18.3347 1.30933 18.3987 1.296 18.4787 1.296C18.668 1.296 18.7627 1.35733 18.7627 1.48C18.7627 1.50133 18.7587 1.528 18.7507 1.56C18.6813 1.81867 18.6173 2.10533 18.5587 2.42C18.5027 2.732 18.4747 2.96933 18.4747 3.132C18.4747 3.276 18.496 3.38133 18.5387 3.448C18.5813 3.512 18.6467 3.544 18.7347 3.544C18.82 3.544 18.9013 3.516 18.9787 3.46C19.056 3.40133 19.1533 3.30267 19.2707 3.164C19.3027 3.12667 19.3387 3.108 19.3787 3.108C19.4133 3.108 19.44 3.124 19.4587 3.156C19.48 3.188 19.4907 3.232 19.4907 3.288C19.4907 3.392 19.4653 3.47467 19.4147 3.536C19.284 3.69333 19.156 3.81333 19.0307 3.896C18.9053 3.97867 18.752 4.02 18.5707 4.02C18.384 4.02 18.2333 3.96667 18.1187 3.86C18.004 3.75067 17.932 3.59733 17.9027 3.4C17.7053 3.81333 17.4147 4.02 17.0307 4.02ZM20.0832 4.02C19.9845 4.02 19.9139 3.99867 19.8712 3.956C19.8285 3.91067 19.8072 3.82667 19.8072 3.704C19.8072 3.62133 19.8152 3.52133 19.8312 3.404C19.8472 3.28667 19.8752 3.10933 19.9152 2.872C19.9205 2.84 19.9419 2.71067 19.9792 2.484C20.0165 2.25467 20.0499 2.01467 20.0792 1.764C20.1059 1.55067 20.1192 1.39067 20.1192 1.284C20.1192 1.164 20.0752 1.104 19.9872 1.104C19.9205 1.104 19.8365 1.14 19.7352 1.212C19.6365 1.28133 19.5299 1.39333 19.4152 1.548C19.3779 1.59867 19.3365 1.624 19.2912 1.624C19.2539 1.624 19.2205 1.60667 19.1912 1.572C19.1645 1.53467 19.1512 1.49333 19.1512 1.448C19.1512 1.40267 19.1592 1.36 19.1752 1.32C19.1912 1.27733 19.2205 1.22667 19.2632 1.168C19.3939 0.989333 19.5392 0.851999 19.6992 0.755999C19.8592 0.657333 20.0272 0.607999 20.2032 0.607999C20.3499 0.607999 20.4592 0.653333 20.5312 0.744C20.6059 0.834666 20.6432 0.966666 20.6432 1.14C20.6432 1.29467 20.6219 1.51867 20.5792 1.812C20.7125 1.41733 20.8819 1.11867 21.0872 0.916C21.2925 0.710666 21.5339 0.607999 21.8112 0.607999C22.0299 0.607999 22.1939 0.670666 22.3032 0.795999C22.4152 0.918666 22.4712 1.084 22.4712 1.292C22.4712 1.40933 22.4539 1.552 22.4192 1.72L22.1752 2.864C22.1485 2.99733 22.1352 3.112 22.1352 3.208C22.1352 3.32 22.1605 3.404 22.2112 3.46C22.2645 3.516 22.3379 3.544 22.4312 3.544C22.5192 3.544 22.6045 3.51467 22.6872 3.456C22.7725 3.39733 22.8725 3.3 22.9872 3.164C23.0192 3.12667 23.0552 3.108 23.0952 3.108C23.1299 3.108 23.1565 3.124 23.1752 3.156C23.1965 3.188 23.2072 3.232 23.2072 3.288C23.2072 3.392 23.1819 3.47467 23.1312 3.536C22.9925 3.704 22.8552 3.82667 22.7192 3.904C22.5832 3.98133 22.4405 4.02 22.2912 4.02C22.0645 4.02 21.8872 3.95333 21.7592 3.82C21.6312 3.684 21.5672 3.50267 21.5672 3.276C21.5672 3.188 21.5739 3.092 21.5872 2.988C21.6032 2.884 21.6285 2.752 21.6632 2.592L21.8232 1.86C21.8285 1.836 21.8379 1.79333 21.8512 1.732C21.8645 1.67067 21.8752 1.61333 21.8832 1.56C21.8912 1.504 21.8952 1.44933 21.8952 1.396C21.8952 1.31067 21.8712 1.24267 21.8232 1.192C21.7752 1.14133 21.7072 1.116 21.6192 1.116C21.4592 1.116 21.2992 1.20133 21.1392 1.372C20.9792 1.54267 20.8312 1.81867 20.6952 2.2C20.5592 2.57867 20.4525 3.064 20.3752 3.656C20.3565 3.792 20.3285 3.88667 20.2912 3.94C20.2565 3.99333 20.1872 4.02 20.0832 4.02ZM26.4384 3.116C26.473 3.116 26.4997 3.13333 26.5184 3.168C26.5397 3.2 26.5504 3.24133 26.5504 3.292C26.5504 3.35333 26.541 3.40133 26.5224 3.436C26.5037 3.47067 26.4744 3.50133 26.4344 3.528C26.277 3.632 26.0264 3.80267 25.6824 4.04C25.5784 4.592 25.4437 5.02667 25.2784 5.344C25.113 5.66133 24.9037 5.82 24.6504 5.82C24.5144 5.82 24.4037 5.77733 24.3184 5.692C24.233 5.60933 24.1904 5.5 24.1904 5.364C24.1904 5.23867 24.2184 5.112 24.2744 4.984C24.3304 4.856 24.4344 4.708 24.5864 4.54C24.741 4.372 24.9584 4.18 25.2384 3.964L25.2504 3.888C25.0397 3.976 24.833 4.02 24.6304 4.02C24.3317 4.02 24.069 3.96267 23.8424 3.848C23.6157 3.73067 23.4397 3.56533 23.3144 3.352C23.189 3.13867 23.1264 2.89067 23.1264 2.608C23.1264 2.21333 23.201 1.86533 23.3504 1.564C23.4997 1.26 23.705 1.02533 23.9664 0.86C24.2304 0.691999 24.525 0.607999 24.8504 0.607999C25.1624 0.607999 25.3957 0.681333 25.5504 0.827999C25.7077 0.972 25.7864 1.164 25.7864 1.404C25.7864 1.56133 25.757 1.688 25.6984 1.784C25.6424 1.87733 25.561 1.924 25.4544 1.924C25.3824 1.924 25.3237 1.90667 25.2784 1.872C25.2357 1.83733 25.2144 1.78933 25.2144 1.728C25.2144 1.70133 25.2197 1.656 25.2304 1.592C25.2464 1.51733 25.2544 1.45867 25.2544 1.416C25.2544 1.304 25.2197 1.21733 25.1504 1.156C25.0837 1.09467 24.9704 1.064 24.8104 1.064C24.6157 1.064 24.4344 1.12 24.2664 1.232C24.101 1.344 23.9677 1.512 23.8664 1.736C23.765 1.95733 23.7144 2.224 23.7144 2.536C23.7144 2.856 23.801 3.104 23.9744 3.28C24.1504 3.45333 24.4037 3.54 24.7344 3.54C24.9184 3.54 25.1104 3.49867 25.3104 3.416L25.3664 2.928H24.9584C24.8837 2.928 24.8264 2.91067 24.7864 2.876C24.7464 2.83867 24.7264 2.77867 24.7264 2.696C24.7264 2.62133 24.7464 2.56267 24.7864 2.52C24.8264 2.47733 24.8797 2.456 24.9464 2.456H25.6944C25.753 2.456 25.801 2.476 25.8384 2.516C25.8784 2.55333 25.8944 2.608 25.8864 2.68C25.8784 2.76533 25.8517 2.95867 25.8064 3.26L25.7624 3.564C25.9757 3.404 26.1704 3.26533 26.3464 3.148C26.381 3.12667 26.4117 3.116 26.4384 3.116ZM24.6944 5.432C24.7637 5.432 24.8397 5.35333 24.9224 5.196C25.005 5.03867 25.0824 4.78533 25.1544 4.436C24.9517 4.60933 24.805 4.76533 24.7144 4.904C24.6264 5.04533 24.5824 5.16933 24.5824 5.276C24.5824 5.38 24.6197 5.432 24.6944 5.432Z" fill="#800080"/>
</svg>
